# xmcd CD database file
#
# Track frame offsets:
#	150
#	21220
#	34075
#	47540
#	63845
#	79557
#	92947
#	103897
#	118760
#	134242
#	153187
#
# Disc length: 2184 seconds
#
# Revision: 0
# Processed by: cddbd v1.5.2PL0 Copyright (c) Steve Scherf et al.
# Submitted via: CDex 1.70beta2
#
DISCID=8e08860b
DTITLE=Piney Woods - Big Blues Party
DYEAR=2002
DGENRE=Blues
TTITLE0=They Came to See Me
TTITLE1=About My New Wife
TTITLE2=Walking Slowly
TTITLE3=Festus
TTITLE4=(Crazy 'bout My) Gene Keady Hair
TTITLE5=Modockin' Girl
TTITLE6=Blues at Daybreak
TTITLE7=Last Call
TTITLE8=Way Cool Jr.
TTITLE9=Glad for What I Got
TTITLE10=Wide Open
EXTD=YEAR: 2002
EXTT0=
EXTT1=
EXTT2=
EXTT3=
EXTT4=
EXTT5=
EXTT6=
EXTT7=
EXTT8=
EXTT9=
EXTT10=
PLAYORDER=
